<svg xmlns="http://www.w3.org/2000/svg" width="23" height="23" viewBox="0 0 23 23">
  <defs>
    <style>
      .cls-1 {
        fill: #fff;
        fill-rule: evenodd;
      }
    </style>
  </defs>
  <path class="cls-1" d="M660.5,413A11.5,11.5,0,1,0,672,424.5,11.5,11.5,0,0,0,660.5,413Zm5.955,10.632-5.214,5.213c-1,1-2.371,1.256-3.059.568-0.009-.009-0.014-0.022-0.023-0.032a1.538,1.538,0,0,1-.443-0.293l-3.153-3.153a1.551,1.551,0,0,1,2.194-2.193l2.3,2.3,4.9-4.9c1-1,2.369-1.255,3.059-.567S667.455,422.63,666.455,423.63Z" transform="translate(-649 -413)"/>
</svg>
