<svg xmlns="http://www.w3.org/2000/svg" width="95" height="81.062" viewBox="0 0 95 81.062">
  <defs>
    <style>
      .cls-1 {
        fill: #fff;
        fill-rule: evenodd;
      }
    </style>
  </defs>
  <path class="cls-1" d="M602.154,687.973A11.157,11.157,0,0,0,590.98,699.16v41.915a11.146,11.146,0,0,0,11.174,11.177H627.3v8.376H616.125a2.8,2.8,0,0,0-2.8,2.8v5.593h50.306v-5.593a2.8,2.8,0,0,0-2.8-2.8H649.663v-8.376h25.146a11.146,11.146,0,0,0,11.174-11.177V699.16a11.157,11.157,0,0,0-11.174-11.187H602.154Zm2.8,11.187h67.06a2.782,2.782,0,0,1,2.8,2.785v36.336a2.791,2.791,0,0,1-2.8,2.794h-67.06a2.8,2.8,0,0,1-2.8-2.794V701.945a2.79,2.79,0,0,1,2.8-2.785h0Z" transform="translate(-590.969 -687.969)"/>
</svg>
